<svg width="463" height="193" viewBox="0 0 463 193" fill="none" xmlns="http://www.w3.org/2000/svg">
<path d="M245.632 115.577V154.248H228.942V119.512C228.942 109.335 224.193 104.993 216.052 104.993C207.503 104.993 201.398 110.014 201.398 123.583V154.248H184.844V91.5602H201.262V101.058H201.533C205.74 93.8666 212.795 89.5254 222.023 89.5254C235.591 89.5254 245.632 97.1238 245.632 115.577Z" fill="white"/>
<path d="M256.437 129.958V91.5586H273.533V126.973C273.533 136.742 278.147 140.949 285.338 140.949C293.615 140.949 299.178 135.522 299.178 121.681V91.5586H315.868V154.247H299.45V144.612H299.178C295.379 151.397 289.408 156.282 279.639 156.282C266.885 156.282 256.437 148.548 256.437 129.958Z" fill="white"/>
<path d="M393.753 122.905C393.753 142.579 378.963 156.284 359.017 156.284C339.071 156.284 324.281 142.579 324.281 122.905C324.281 103.23 339.071 89.5254 359.017 89.5254C378.963 89.5254 393.753 103.23 393.753 122.905ZM341.378 122.905C341.378 133.623 348.84 140.544 359.017 140.544C369.193 140.544 376.521 133.623 376.521 122.905C376.521 112.185 369.193 105.265 359.017 105.265C348.84 105.265 341.378 112.185 341.378 122.905Z" fill="white"/>
<path d="M462.87 115.577V154.248H446.18V119.512C446.18 109.335 441.431 104.993 433.289 104.993C424.741 104.993 418.635 110.014 418.635 123.583V154.248H402.082V91.5602H418.5V101.058H418.771C422.977 93.8666 430.033 89.5254 439.26 89.5254C452.829 89.5254 462.87 97.1238 462.87 115.577Z" fill="white"/>
<path d="M102.482 0.46228L65.7102 21.6974V56.0774L35.9437 38.8789H35.9267L0.444336 59.3678V172.108L35.9097 192.596H35.9267L74.0041 170.598V137.727L102.482 154.163L139.253 132.928V21.6974L102.482 0.46228ZM8.75522 64.1678L35.9097 48.4958H35.9267L65.6933 65.6773V123.328L8.75522 90.4573V64.1678ZM65.6933 165.798L35.9097 182.98L8.75522 167.308V100.057L65.6933 132.928V165.798ZM130.942 128.111L102.482 144.546L74.0211 128.128V70.4773L130.959 103.348V128.111H130.942ZM130.942 93.7476L74.0041 60.8774V26.4974L102.482 10.0622L130.942 26.4974V93.7476Z" fill="url(#paint0_linear_11_652)"/>
<defs>
<linearGradient id="paint0_linear_11_652" x1="0.444337" y1="172.616" x2="75.6295" y2="-5.3327" gradientUnits="userSpaceOnUse">
<stop stop-color="#F72585"/>
<stop offset="0.53" stop-color="#3A00FF"/>
<stop offset="1" stop-color="#4CC9F0"/>
</linearGradient>
</defs>
</svg>
