<svg width="463" height="193" viewBox="0 0 463 193" fill="none" xmlns="http://www.w3.org/2000/svg">
<path d="M245.632 115.35V154.021H228.942V119.286C228.942 109.108 224.193 104.766 216.052 104.766C207.503 104.766 201.398 109.787 201.398 123.356V154.021H184.844V91.3334H201.262V100.832H201.533C205.74 93.6398 212.795 89.2986 222.023 89.2986C235.591 89.2986 245.632 96.897 245.632 115.35Z" fill="#07011C"/>
<path d="M256.437 129.731V91.3318H273.533V126.747C273.533 136.516 278.147 140.722 285.338 140.722C293.615 140.722 299.178 135.295 299.178 121.455V91.3318H315.868V154.02H299.45V144.386H299.178C295.379 151.17 289.408 156.055 279.639 156.055C266.885 156.055 256.437 148.321 256.437 129.731Z" fill="#07011C"/>
<path d="M393.753 122.678C393.753 142.352 378.963 156.057 359.017 156.057C339.071 156.057 324.281 142.352 324.281 122.678C324.281 103.003 339.071 89.2986 359.017 89.2986C378.963 89.2986 393.753 103.003 393.753 122.678ZM341.378 122.678C341.378 133.397 348.84 140.317 359.017 140.317C369.193 140.317 376.521 133.397 376.521 122.678C376.521 111.958 369.193 105.038 359.017 105.038C348.84 105.038 341.378 111.958 341.378 122.678Z" fill="#07011C"/>
<path d="M462.87 115.35V154.021H446.18V119.286C446.18 109.108 441.431 104.766 433.289 104.766C424.741 104.766 418.635 109.787 418.635 123.356V154.021H402.082V91.3334H418.5V100.832H418.771C422.977 93.6398 430.033 89.2986 439.26 89.2986C452.829 89.2986 462.87 96.897 462.87 115.35Z" fill="#07011C"/>
<path d="M102.482 0.235474L65.7102 21.4706V55.8506L35.9437 38.6521H35.9267L0.444336 59.141V171.881L35.9097 192.37H35.9267L74.0041 170.371V137.5L102.482 153.936L139.253 132.701V21.4706L102.482 0.235474ZM8.75522 63.9409L35.9097 48.269H35.9267L65.6933 65.4505V123.101L8.75522 90.2304V63.9409ZM65.6933 165.571L35.9097 182.753L8.75522 167.081V99.8305L65.6933 132.701V165.571ZM130.942 127.884L102.482 144.32L74.0211 127.901V70.2505L130.959 103.121V127.884H130.942ZM130.942 93.5207L74.0041 60.6506V26.2706L102.482 9.83539L130.942 26.2706V93.5207Z" fill="url(#paint0_linear_11_646)"/>
<defs>
<linearGradient id="paint0_linear_11_646" x1="0.444337" y1="172.389" x2="75.6295" y2="-5.55951" gradientUnits="userSpaceOnUse">
<stop stop-color="#F72585"/>
<stop offset="0.53" stop-color="#3A00FF"/>
<stop offset="1" stop-color="#4CC9F0"/>
</linearGradient>
</defs>
</svg>
